<?xml version="1.0" encoding="UTF-8" standalone="no"?>
<!-- Created with Inkscape (http://www.inkscape.org/) -->

<svg
   width="21.264738mm"
   height="21.439634mm"
   viewBox="0 0 21.264738 21.439634"
   version="1.1"
   id="svg1"
   xml:space="preserve"
   xmlns:inkscape="http://www.inkscape.org/namespaces/inkscape"
   xmlns:sodipodi="http://sodipodi.sourceforge.net/DTD/sodipodi-0.dtd"
   xmlns="http://www.w3.org/2000/svg"
   xmlns:svg="http://www.w3.org/2000/svg"><sodipodi:namedview
     id="namedview1"
     pagecolor="#ffffff"
     bordercolor="#666666"
     borderopacity="1.0"
     inkscape:showpageshadow="2"
     inkscape:pageopacity="0.0"
     inkscape:pagecheckerboard="0"
     inkscape:deskcolor="#d1d1d1"
     inkscape:document-units="mm"><inkscape:page
       x="0"
       y="5.7727365e-16"
       width="21.264738"
       height="21.439632"
       id="page2"
       margin="0"
       bleed="0" /></sodipodi:namedview><defs
     id="defs1" /><g
     inkscape:label="Camada 1"
     inkscape:groupmode="layer"
     id="layer1"
     transform="translate(-37.605226,-7.520855)"><rect
       style="fill:#282d32;fill-opacity:0.4;stroke:none;stroke-width:0.300503;stroke-linecap:round;stroke-linejoin:round;stroke-miterlimit:4;stroke-dasharray:0.300503, 1.80302;stroke-dashoffset:0.180302"
       id="rect6"
       width="19.528931"
       height="19.539177"
       x="37.605225"
       y="9.4213085"
       ry="5.653975" /><path
       id="rect7"
       style="fill:#292d32;fill-opacity:1;stroke:none;stroke-width:0.517966;stroke-linecap:round;stroke-linejoin:round;stroke-miterlimit:4;stroke-dasharray:0.517966, 3.1078;stroke-dashoffset:0.31078"
       d="m 49.568208,7.5208542 c -0.96145,0 -1.735811,0.7738441 -1.735811,1.7352946 v 4.5821492 h -4.581633 c -0.96145,0 -1.735811,0.773844 -1.735811,1.735295 v 1.249019 c 0,0.961451 0.774361,1.735295 1.735811,1.735295 h 4.581633 v 4.582149 c 0,0.961451 0.774361,1.735295 1.735811,1.735295 h 1.24902 c 0.96145,0 1.735294,-0.773844 1.735294,-1.735295 v -4.582149 h 4.581633 c 0.96145,0 1.735811,-0.773844 1.735811,-1.735295 v -1.249019 c 0,-0.961451 -0.774361,-1.735295 -1.735811,-1.735295 H 52.552522 V 9.2561488 c 0,-0.9614505 -0.773844,-1.7352946 -1.735294,-1.7352946 z" /></g></svg>
